<?xml version="1.0" encoding="UTF-8" standalone="no"?>
<svg
   width="16"
   height="16"
   fill="currentColor"
   class="bi bi-book-half"
   viewBox="0 0 16 16"
   version="1.1"
   id="svg3337"
   sodipodi:docname="alt-history.svg"
   inkscape:version="1.1.1 (3bf5ae0d25, 2021-09-20)"
   xmlns:inkscape="http://www.inkscape.org/namespaces/inkscape"
   xmlns:sodipodi="http://sodipodi.sourceforge.net/DTD/sodipodi-0.dtd"
   xmlns="http://www.w3.org/2000/svg"
   xmlns:svg="http://www.w3.org/2000/svg">
  <defs
     id="defs3341" />
  <sodipodi:namedview
     id="namedview3339"
     pagecolor="#ffffff"
     bordercolor="#666666"
     borderopacity="1.0"
     inkscape:pageshadow="2"
     inkscape:pageopacity="0.0"
     inkscape:pagecheckerboard="0"
     showgrid="false"
     inkscape:zoom="38.493125"
     inkscape:cx="8.0144182"
     inkscape:cy="8.0014288"
     inkscape:window-width="1920"
     inkscape:window-height="1051"
     inkscape:window-x="0"
     inkscape:window-y="0"
     inkscape:window-maximized="1"
     inkscape:current-layer="svg3337" />
  <rect
     style="fill:#000000;stroke:none;stroke-width:0.306629;stroke-miterlimit:4;stroke-dasharray:none"
     id="rect3568"
     width="6.4759631"
     height="9.8791227"
     x="7.9890456"
     y="2.8186085" />
  <path
     d="M 8.3782563,3.541573 C 8.9697346,2.9184406 9.9898991,2.7402736 11.192752,2.8614633 c 1.116031,0.1121458 2.263717,0.4730018 3.064112,0.8076303 V 12.643467 C 13.426623,12.326926 12.35129,12.017621 11.284097,11.910902 10.294682,11.810513 9.2238714,11.87563 8.3782563,12.355867 Z M 7.9260557,2.7239944 C 7.0352205,1.9579666 5.7437356,1.844012 4.5680141,1.9615842 3.1987507,2.0999575 1.8168258,2.5693418 0.95583587,2.9609475 A 0.45220059,0.45220059 0 0 0 0.69084633,3.37245 v 9.948413 A 0.45220059,0.45220059 0 0 0 1.330258,13.732366 c 0.7976818,-0.361761 2.0828358,-0.796778 3.3281962,-0.922489 1.2743013,-0.128425 2.3423991,0.07868 2.914885,0.793159 a 0.45220059,0.45220059 0 0 0 0.7054329,0 c 0.572486,-0.714477 1.6405838,-0.921584 2.9139799,-0.793159 1.246265,0.125711 2.532324,0.560728 3.329101,0.922489 a 0.45220059,0.45220059 0 0 0 0.639412,-0.411503 V 3.37245 A 0.45220059,0.45220059 0 0 0 14.896275,2.9609475 C 14.035285,2.5693418 12.65336,2.0999575 11.284097,1.9615842 10.108376,1.8431076 8.8168908,1.9579666 7.9260557,2.7239944 Z"
     id="path3335"
     style="fill:#ffcc00;stroke-width:0.204;stroke:#000000;stroke-miterlimit:4;stroke-dasharray:none" />
  <path
     fill-rule="evenodd"
     d="m 13.775895,8.5787881 a 0.36899131,0.29128691 0 0 1 0,0.4124632 L 10.823966,11.321546 A 0.36945793,0.29165526 0 0 1 10.301473,10.909085 L 12.623904,9.0763066 H 5.3968429 A 1.8449565,1.4564346 0 0 1 3.5518864,7.6198722 V 2.9592824 a 0.36899131,0.29128691 0 0 1 0.7379824,0 V 7.6198722 A 1.1069739,0.87386071 0 0 0 5.3968429,8.4937329 H 12.623904 L 10.301473,6.6609555 a 0.36945853,0.29165573 0 0 1 0.522493,-0.4124632 z"
     id="path4096"
     style="fill:#ffffff;stroke:#000000;stroke-width:0.120088;stroke-miterlimit:4;stroke-dasharray:none" />
</svg>
